<svg width="21" height="20" viewBox="0 0 21 20" fill="none" xmlns="http://www.w3.org/2000/svg">
<path d="M10.465 0.499579C4.94003 0.519944 0.481134 4.89808 0.500962 10.2774C0.516828 14.5821 3.39526 18.2219 7.37248 19.4943C7.87282 19.5842 8.05504 19.282 8.05408 19.0234C8.05323 18.7921 8.04264 18.1792 8.03548 17.3672C5.256 17.9648 4.66235 16.0728 4.66235 16.0728C4.20321 14.9502 3.54461 14.6519 3.54461 14.6519C2.63655 14.0514 3.61243 14.0602 3.61243 14.0602C4.61683 14.1242 5.14778 15.0582 5.14778 15.0582C6.04493 16.5443 7.4925 16.1086 8.06325 15.8578C8.15092 15.2272 8.40684 14.7975 8.69178 14.5528C6.47006 14.3173 4.13282 13.4882 4.11906 9.75607C4.11515 8.69292 4.49944 7.82246 5.13859 7.13859C5.02518 6.89284 4.68404 5.90363 5.21659 4.56011C5.21659 4.56011 6.05312 4.29598 7.97025 5.54869C8.76945 5.32931 9.61904 5.21879 10.469 5.2107C11.319 5.21252 12.1694 5.31678 12.9702 5.53026C14.8656 4.2635 15.704 4.52145 15.704 4.52145C16.2465 5.86101 15.9126 6.85271 15.8135 7.09925C16.4535 7.7784 16.8442 8.646 16.8481 9.70915C16.8619 13.4512 14.5275 14.2834 12.3034 14.5312C12.6545 14.8223 12.9817 15.4184 12.985 16.3312C12.9898 17.6347 12.9812 18.6822 12.9824 18.9986C12.9833 19.2539 13.1594 19.5581 13.6716 19.4587C17.6677 18.1652 20.5167 14.5018 20.5008 10.2037C20.481 4.82436 15.9875 0.479224 10.465 0.499579Z" fill="#212121"/>
</svg>
