<svg width="22" height="22" viewBox="0 0 22 22" fill="none" xmlns="http://www.w3.org/2000/svg">
<path d="M14.7931 1.01626L7.29312 0.983935C3.84191 0.969062 1.03112 3.75573 1.01625 7.20694L0.983927 14.7069C0.969053 18.1581 3.75572 20.9689 7.20693 20.9838L14.7069 21.0161C18.1581 21.0309 20.9689 18.2443 20.9837 14.7931L21.0161 7.29313C21.0309 3.84192 18.2443 1.03113 14.7931 1.01626ZM19.1088 14.785C19.0984 17.1975 17.1274 19.1515 14.7149 19.1411L7.21501 19.1088C4.80254 19.0984 2.84851 17.1274 2.85891 14.715L2.89123 7.21502C2.90163 4.80255 4.87257 2.84852 7.28504 2.85892L14.785 2.89124C17.1975 2.90164 19.1515 4.87258 19.1411 7.28505L19.1088 14.785Z" fill="black"/>
<path d="M11.0215 6.00005C8.26031 5.98815 6.01193 8.21723 6.00003 10.9785C5.98813 13.7397 8.21721 15.9881 10.9784 16C13.7397 16.0119 15.988 13.7828 15.9999 11.0216C16.0118 8.26033 13.7828 6.01195 11.0215 6.00005ZM10.9865 14.125C9.26403 14.1176 7.86759 12.709 7.87501 10.9865C7.88244 9.2628 9.29097 7.86761 11.0134 7.87503C12.7359 7.88246 14.1324 9.28974 14.125 11.0135C14.1175 12.736 12.709 14.1324 10.9865 14.125Z" fill="black"/>
<path d="M16.3952 6.31445C16.7632 6.31603 17.0628 6.01903 17.0644 5.65108C17.0659 5.28312 16.7689 4.98355 16.401 4.98196C16.033 4.98038 15.7335 5.27738 15.7319 5.64533C15.7303 6.01329 16.0273 6.31286 16.3952 6.31445Z" fill="black"/>
</svg>
